# xmcd
# Copyright (C) 1995-1998 Ti Kan
#
# Track frame offsets:
#       150
#       8606
#       21331
#       32182
#       43156
#       51587
#       66596
#       76233
#       87666
#       96907
#       109007
#       141842
#       145431
#       155994
#       163982
#       253739
#       264788
#       277099
#       289102
#       302583
#       317852
#
# Disc length: 4374 seconds
#
# Revision: 1
# Processed by: cddbd v1.4PL0 Copyright (c) Steve Scherf et al.
# Submitted via: CD-Transfer v1.0
#
DISCID=44111415
DTITLE=Irish Chamber Orchestra - Baroque and Contermporary Trumpet 2
DYEAR=02
DGENRE=
TTITLE0=Davies - Allegro Moderato
TTITLE1=Davies - Lento
TTITLE2=Davies - Allegro vivo
TTITLE3=Jolivet - Allegro
TTITLE4=Jolivet - Vivo
TTITLE5=Jolivet - Cantante
TTITLE6=Jolivet - Vehemente
TTITLE7=Jolivet - Maestoso
TTITLE8=Jolivet - Sempre Stringendo
TTITLE9=Jolivet - Vivo e ritmico
TTITLE10=Nyman - Flugal Horn and Piano
TTITLE11=Henze - Toccata
TTITLE12=Henze - Canzone
TTITLE13=Henze - Segnali
TTITLE14=Berio - Sequenze X for solo Trumpet
TTITLE15=Fenton - Introduction
TTITLE16=Fenton - Introducion 1
TTITLE17=Fenton - Introducion 2
TTITLE18=Fenton - Introducion 3
TTITLE19=Fenton - Introducion 4
TTITLE20=Fenton - Introducion 5
EXTD=
EXTT0=
EXTT1=
EXTT2=
EXTT3=
EXTT4=
EXTT5=
EXTT6=
EXTT7=
EXTT8=
EXTT9=
EXTT10=
EXTT11=
EXTT12=
EXTT13=
EXTT14=
EXTT15=
EXTT16=
EXTT17=
EXTT18=
EXTT19=
EXTT20=
PLAYORDER=
